<svg xmlns="http://www.w3.org/2000/svg" width="0" height="0" class="sprite-icons"><symbol viewBox="0 0 24 25" id="facebook"><path d="M24 12.573C24 5.905 18.627.5 12 .5S0 5.905 0 12.573C0 18.6 4.388 23.594 10.125 24.5v-8.437H7.078v-3.49h3.047v-2.66c0-3.025 1.791-4.697 4.533-4.697 1.313 0 2.686.236 2.686.236v2.971H15.83c-1.491 0-1.956.93-1.956 1.886v2.264h3.328l-.532 3.49h-2.796V24.5C19.612 23.594 24 18.6 24 12.573z"/></symbol><symbol viewBox="0 0 24 28" id="about-us-flag"><path d="M23.113 4.305a.82.82 0 00-.598-.252c-.114 0-.355.094-.723.28-.367.185-.757.392-1.168.623a8.41 8.41 0 01-1.46.624c-.562.185-1.082.28-1.56.28-.442 0-.832-.085-1.168-.253-1.114-.522-2.084-.912-2.907-1.169a8.879 8.879 0 00-2.655-.385c-1.636 0-3.5.532-5.589 1.594-.431.215-.74.381-.94.503l-.199-1.455a2.11 2.11 0 00.739-1.598 2.124 2.124 0 10-4.25 0c0 .766.41 1.431 1.016 1.805l2.87 21.045A1.25 1.25 0 007 25.61l-1.155-8.46c2.093-1.038 3.904-1.562 5.426-1.562a6.22 6.22 0 011.892.292c.615.195 1.127.407 1.534.637.407.23.887.443 1.44.637.553.195 1.1.292 1.639.292 1.363 0 2.995-.513 4.898-1.54.239-.124.414-.246.524-.365.111-.12.166-.29.166-.51V4.901a.82.82 0 00-.25-.597z"/></symbol><symbol viewBox="0 0 26 22" id="about-us-chest"><path d="M14.232 13.332v-.558a1.232 1.232 0 10-2.463 0v.558a1.232 1.232 0 102.463 0z"/><path d="M15.077 14.014a2.177 2.177 0 01-2.076 1.55 2.177 2.177 0 01-2.077-1.55H2.439a3.47 3.47 0 01-1.496-.34v5.633c0 1.1.9 2 2 2h20.113c1.1 0 2-.9 2-2v-5.633a3.47 3.47 0 01-1.495.34h-8.484zm8.4-10.116h-4.8A3.809 3.809 0 0014.923.694h-3.847a3.81 3.81 0 00-3.754 3.204h-4.8c-1.145 0-2.083.9-2.083 2v4.616a2 2 0 002 2h8.39a2.171 2.171 0 01.666-1.466c.012-.012.026-.02.039-.032.086-.08.176-.154.274-.22.036-.023.075-.039.112-.06.081-.046.161-.095.248-.13.069-.03.143-.046.215-.067.062-.019.121-.043.186-.056a2.155 2.155 0 01.862 0c.065.013.124.037.186.056.071.021.145.038.214.067.087.036.167.084.248.13.037.022.076.038.112.061.098.065.188.14.274.22.013.01.027.02.04.032.39.374.637.89.665 1.466h8.39a2 2 0 002-2V5.9c.001-1.101-.936-2.001-2.082-2.001zm-14.229 0a1.93 1.93 0 011.829-1.332h3.846a1.93 1.93 0 011.829 1.332H9.248z"/></symbol><symbol viewBox="0 0 26 26" id="about-us-star"><path d="M13.097.553C6.252.553.684 6.121.684 12.966c0 6.845 5.568 12.414 12.413 12.414 6.845 0 12.413-5.569 12.413-12.414S19.942.553 13.097.553zm6.859 11.505v.001l-3.594 2.6 1.384 4.23a.669.669 0 01-1.027.752l-3.622-2.62-3.621 2.62a.67.67 0 01-1.027-.752l1.384-4.23-3.593-2.6a.668.668 0 01.392-1.21h4.449l1.377-4.211a.67.67 0 011.28 0l1.377 4.21h4.449a.669.669 0 01.392 1.21z"/></symbol></svg>